<svg xmlns="http://www.w3.org/2000/svg" width="420" height="594" x="0" y="0" viewBox="0 0 420 594"><defs><clipPath id="svgPath"><circle cx="168" cy="168" r="168"></circle></clipPath></defs><rect style="fill:#000000" width="420" height="594" x="0" y="0"></rect><g transform="translate(42,45.738)"><g style="clip-path: url(#svgPath);"><path stroke-width="1" stroke="#000000" fill="white" d="M120.27734822238402,45.597961245158956 122.09531380474489,46.636591380868225 122.88803135539001,45.25050587952176 121.07006577302914,44.211875981239665 120.27734822238402,45.597961245158956Z" id="way/608703114"></path>,<path stroke-width="1" stroke="#000000" fill="white" d="M132.06593899569882,45.57554476890589 133.48226101920372,43.92793402568165 131.28731420173233,42.03747871126234 129.87099217822743,43.68508894190328 132.06593899569882,45.57554476890589Z" id="way/608703115"></path>,<path stroke-width="1" stroke="#000000" fill="white" d="M164.57440494488804,69.05684856363803 167.36124753372394,67.87624305214669 166.49454301154773,65.82512832778468 163.7041772339843,67.00573343958484 164.57440494488804,69.05684856363803Z" id="way/608703116"></path>,<path stroke-width="1" stroke="#000000" fill="white" d="M156.9925019729363,71.11170047583572 159.14164733223384,69.62473484077258 158.11639930022335,68.14524175624231 155.96725394092581,69.63594312318642 156.9925019729363,71.11170047583572Z" id="way/608703117"></path>,<path stroke-width="1" stroke="#000000" fill="white" d="M154.91029720712532,76.99605298393016 156.33014241965247,78.78938059717933 157.9684253574559,77.49669022285919 156.55210333365625,75.69962689305643 154.91029720712532,76.99605298393016Z" id="way/608703118"></path>,<path stroke-width="1" stroke="#000000" fill="white" d="M124.69895055941157,105.95835879661138 124.64962591192068,113.59124956789516 128.16224545820992,113.61366629439735 128.19747734931696,108.27475145640548 131.86159402710118,108.29716816389582 131.87920997280207,106.00692831133038 124.69895055941157,105.95835879661138Z" id="way/608703119"></path>,<path stroke-width="1" stroke="#000000" fill="white" d="M132.1364027779129,105.58101104424742 132.23152888416718,117.01353753412452 136.38889203803936,116.97991242484356 136.2937659317851,105.54738599819193 132.1364027779129,105.58101104424742Z" id="way/608703120"></path>,<path stroke-width="1" stroke="#000000" fill="white" d="M152.38417061242248,112.05570395613745 152.74705909114917,109.81403222954101 149.25205549085555,109.2498783085771 148.8891670121289,111.48781370699812 152.38417061242248,112.05570395613745Z" id="way/608703121"></path>,<path stroke-width="1" stroke="#000000" fill="white" d="M141.37420463336895,109.64590688342389 141.0218857217091,112.00713439352035 143.81577468888432,112.42557987113432 144.16809360024942,110.06435219803696 141.37420463336895,109.64590688342389Z" id="way/608703122"></path>,<path stroke-width="1" stroke="#000000" fill="white" d="M143.9496558752679,314.519438480512 146.43702738954667,313.57416858138305 145.20743438864378,310.3385818219319 142.72006287465976,311.283851216436 143.9496558752679,314.519438480512Z" id="way/608703124"></path>,<path stroke-width="1" stroke="#000000" fill="white" d="M102.93621140612055,278.2293998511854 101.80174451176667,281.1623352963846 104.04249278770669,282.02540319432273 105.17343649333304,279.0962035546939 102.93621140612055,278.2293998511854Z" id="way/608703125"></path>,<path stroke-width="1" stroke="#000000" fill="white" d="M95.7066273455339,269.5127988040618 98.63792068782023,273.8131863534284 100.28677319298524,272.68858427597536 97.35547985069891,268.391933739948 95.7066273455339,269.5127988040618Z" id="way/608703126"></path>,<path stroke-width="1" stroke="#000000" fill="white" d="M144.79874445144847,220.3032813832981 144.11524576373625,223.13904791035333 146.4088418764842,223.69200385686815 147.0958637532187,220.8562370713106 144.79874445144847,220.3032813832981Z" id="way/608703127"></path>,<path stroke-width="1" stroke="#000000" fill="white" d="M164.4792788389285,54.0788671976442 168.18919697518135,56.39524004796531 169.8239567239625,53.77624435844116 166.1140385874149,51.4636085907273 164.4792788389285,54.0788671976442Z" id="way/608703128"></path>,<path stroke-width="1" stroke="#000000" fill="white" d="M136.8609993791094,93.95796453388647 142.53333385176302,90.27042598380571 140.12347249774288,86.56794525753793 134.45466121470105,90.2517454497431 136.8609993791094,93.95796453388647Z" id="way/608703129"></path>,<path stroke-width="1" stroke="#000000" fill="white" d="M146.57090857563549,97.07761642556386 148.6495901524242,99.90958923206215 150.1716078492502,98.79249162133742 149.89327590941622,98.41140820238128 150.93261669810533,97.65297754850798 150.60143692116864,97.20090808965003 151.59849944041142,96.47236647214228 150.4217542766112,94.8658391103835 149.19920765404763,95.7625054918623 148.9067829578298,95.36274171363473 146.57090857563549,97.07761642556386Z" id="way/608703130"></path>,<path stroke-width="1" stroke="#000000" fill="white" d="M145.6971576754147,102.17741009777745 148.03655524692604,100.49989507627699 146.54272306286776,98.41888042647021 144.20332549135645,100.09639487275142 145.6971576754147,102.17741009777745Z" id="way/608703131"></path>,<path stroke-width="1" stroke="#000000" fill="white" d="M142.7693875224454,91.90310488283045 144.96081115089453,95.3029639552625 149.80167299247896,92.18704908429328 147.61024936402984,88.78345565310809 142.7693875224454,91.90310488283045Z" id="way/608703132"></path>,<path stroke-width="1" stroke="#000000" fill="white" d="M150.25616438814288,91.33521652043392 154.74470731865696,88.47709497612908 153.0817620571081,85.8618215408463 148.593219126594,88.71994185276999 150.25616438814288,91.33521652043392Z" id="way/608703133"></path>,<path stroke-width="1" stroke="#000000" fill="white" d="M150.9678485889176,94.54826979860805 152.8562779537873,97.0290469826183 155.28023206389653,95.18340843851801 153.38827951000457,92.70263200997124 150.9678485889176,94.54826979860805Z" id="way/608703134"></path>,<path stroke-width="1" stroke="#000000" fill="white" d="M142.7447251984052,84.1992554422374 146.25382155508268,88.20809537110713 153.86038685107462,81.54662283677297 150.35129049439715,77.537787311433 142.7447251984052,84.1992554422374Z" id="way/608703135"></path>,<path stroke-width="1" stroke="#000000" fill="white" d="M141.65958295154223,82.83184187024503 148.156343676631,77.20901060947465 146.13403312537773,74.87394932632664 139.63727240028896,80.49677842151361 141.65958295154223,82.83184187024503Z" id="way/608703136"></path>,<path stroke-width="1" stroke="#000000" fill="white" d="M141.16281328672676,165.4712501382081 142.99839481449376,167.08900466145164 144.74941980395758,165.10510714207393 142.91031508687354,163.48361699571493 141.16281328672676,165.4712501382081Z" id="way/608703137"></path>,<path stroke-width="1" stroke="#000000" fill="white" d="M145.03832131115317,168.99070741269298 146.92675067602286,171.56491896199626 149.03009457685178,170.02188636395675 147.1381420229598,167.44767546827828 145.03832131115317,168.99070741269298Z" id="way/608703138"></path>,<path stroke-width="1" stroke="#000000" fill="white" d="M145.6020315694552,180.1879751894937 145.03832131115317,184.15578074387057 147.74060736109638,184.54434187972177 148.3078408084207,180.57279990859487 145.6020315694552,180.1879751894937Z" id="way/608703139"></path>,<path stroke-width="1" stroke="#000000" fill="white" d="M142.7447251984052,195.5436212681148 145.7640982686065,196.17129813927937 146.6378491685325,191.96436987503705 143.618476098626,191.3404296080883 142.7447251984052,195.5436212681148Z" id="way/608703140"></path>,<path stroke-width="1" stroke="#000000" fill="white" d="M150.09409768899158,196.6532643521387 154.91029720712532,197.69565652462575 155.6748292444132,194.1649740826906 150.8551065372572,193.1263186871473 150.09409768899158,196.6532643521387Z" id="way/608703141"></path>,<path stroke-width="1" stroke="#000000" fill="white" d="M185.03356412633457,152.0734197932625 188.5532300506684,154.1058829492347 190.12104920625774,151.38970531741143 186.60138328192394,149.36097921427594 185.03356412633457,152.0734197932625Z" id="way/608703142"></path>,<path stroke-width="1" stroke="#000000" fill="white" d="M191.2696088569955,159.65779864618102 190.3007318508152,162.6803443884729 192.93960049688366,163.52845081922948 193.90847750306395,160.5021685039661 191.2696088569955,159.65779864618102Z" id="way/608703143"></path>,<path stroke-width="1" stroke="#000000" fill="white" d="M198.95016112422374,155.5704524115314 197.31892456475964,160.60304455691247 199.53853370627124,161.32412157629747 201.16977026573537,156.29152883196915 198.95016112422374,155.5704524115314Z" id="way/608703144"></path>,<path stroke-width="1" stroke="#000000" fill="white" d="M186.00244113280962,159.4000043319316 184.2760784667965,163.03527878341296 186.81629781788317,164.2383197293707 188.5426604833068,160.60304455691247 186.00244113280962,159.4000043319316Z" id="way/608703145"></path>,<path stroke-width="1" stroke="#000000" fill="white" d="M204.263130307173,131.56949133046837 204.00593750176742,134.26324328370924 206.84210473838897,134.5359810656257 207.10282073281684,131.84222899138686 204.263130307173,131.56949133046837Z" id="way/608703146"></path>,<path stroke-width="1" stroke="#000000" fill="white" d="M209.3189066850114,121.59776254191263 209.1075153383692,124.41106615661717 212.46159137423467,124.66512285533776 212.67650590989913,121.85181912258284 209.3189066850114,121.59776254191263Z" id="way/608703147"></path>,<path stroke-width="1" stroke="#000000" fill="white" d="M204.8620724562873,173.43299769396987 204.69295937909143,176.38456326247643 206.05643356608317,176.4630226203123 206.0846190788509,175.99600264996718 208.82918339824045,176.15665751578078 208.97363415169087,173.66837565502746 204.8620724562873,173.43299769396987Z" id="way/608703148"></path>,<path stroke-width="1" stroke="#000000" fill="white" d="M224.44043435976326,175.461731848554 225.8814187070136,174.20638245728782 223.66180956579674,171.65458672840217 222.2173020292294,172.9099355914629 224.44043435976326,175.461731848554Z" id="way/608703149"></path>,<path stroke-width="1" stroke="#000000" fill="white" d="M225.31418525998404,175.8876540221704 227.27307840677304,178.41703456525136 228.6471221608316,177.352228742941 226.68470582502033,174.82284864391224 225.31418525998404,175.8876540221704Z" id="way/608703151"></path>,<path stroke-width="1" stroke="#000000" fill="white" d="M227.0616870598361,197.5760989904135 228.29128006073898,195.02429342959644 226.61424204280624,194.21728047412876 225.38464904190334,196.7690856955325 227.0616870598361,197.5760989904135Z" id="way/608703153"></path>,<path stroke-width="1" stroke="#000000" fill="white" d="M209.6747487856935,194.5759528856152 209.7557821349744,192.80127189089305 206.63775976949657,192.6630336033186 206.55672642021568,194.43397838673673 209.6747487856935,194.5759528856152Z" id="way/608703155"></path>,<path stroke-width="1" stroke="#000000" fill="white" d="M200.9548557297761,192.6630336033186 204.90082753671138,192.70786764200614 204.94310580615772,189.32663481475697 200.99713399922246,189.27806463329648 200.9548557297761,192.6630336033186Z" id="way/608703156"></path>,<path stroke-width="1" stroke="#000000" fill="white" d="M211.91902025065582,194.74034441444877 214.96657883391958,194.74034441444877 214.96657883391958,192.92082933063548 211.91902025065582,192.92082933063548 211.91902025065582,194.74034441444877Z" id="way/608703157"></path>,<path stroke-width="1" stroke="#000000" fill="white" d="M217.16152565139097,194.83374869472732 220.28307120589108,194.88231892084357 220.3112567186588,193.04038677376766 217.18971116445346,192.99181656224192 217.16152565139097,194.83374869472732Z" id="way/608703158"></path>,<path stroke-width="1" stroke="#000000" fill="white" d="M210.6189634678336,181.98506947384553 209.60428500318469,187.79480619788242 211.30598534486288,188.09369955656908 212.32418699882882,182.28022638262192 210.6189634678336,181.98506947384553Z" id="way/608703159"></path>,<path stroke-width="1" stroke="#000000" fill="white" d="M183.8744349079405,244.4951398714288 188.67301848037334,245.8177554569664 189.1662649564613,244.0281146623585 184.3676813840285,242.70549946678508 183.8744349079405,244.4951398714288Z" id="way/608703168"></path>,<path stroke-width="1" stroke="#000000" fill="white" d="M184.32540311458214,242.20484859252116 189.26139106242084,243.31450021316456 189.9801216418296,240.1163129277101 185.04413369369615,239.0066618924551 184.32540311458214,242.20484859252116Z" id="way/608703169"></path>,<path stroke-width="1" stroke="#000000" fill="white" d="M192.49920185760362,238.70776602493996 191.1286812922726,245.01447194502302 194.15862393013023,245.67204355625827 195.5291444951665,239.36533695204304 192.49920185760362,238.70776602493996Z" id="way/608703170"></path>,<path stroke-width="1" stroke="#000000" fill="white" d="M201.45162539459162,242.8661560992278 201.43048625986845,244.73052058935335 203.36119389418448,244.75667400392987 203.38585621792993,242.88857330456355 201.45162539459162,242.8661560992278Z" id="way/608703171"></path>,<path stroke-width="1" stroke="#000000" fill="white" d="M199.96483958887265,248.0146429991283 203.95661285457126,247.40190557764384 203.61838669959005,245.1938096503451 199.6266134341862,245.8065468488455 199.96483958887265,248.0146429991283Z" id="way/608703172"></path>,<path stroke-width="1" stroke="#000000" fill="white" d="M210.40757212089665,232.2553550842311 206.48626263770686,242.72418047069115 208.85032253296362,243.6096601062133 212.7716320161534,233.14456938667536 210.40757212089665,232.2553550842311Z" id="way/608703173"></path>,<path stroke-width="1" stroke="#000000" fill="white" d="M185.57613524991345,224.3196836415633 186.97131813869515,218.10640387836617 184.46280749028276,217.54223988539087 183.06762460120626,223.75551907027375 185.57613524991345,224.3196836415633Z" id="way/608703174"></path>,<path stroke-width="1" stroke="#000000" fill="white" d="M183.02534633175992,225.69086530067338 181.3483083138272,234.2654279359114 184.92082207467416,234.96409653653456 186.5978600926069,226.38953291341676 183.02534633175992,225.69086530067338Z" id="way/608703175"></path>,<path stroke-width="1" stroke="#000000" fill="white" d="M190.06467818042753,207.97014093224072 193.06643530492792,210.13712532165795 192.46044677747432,210.9702936627456 194.75404289022225,212.62542214327067 196.74112155007373,209.87185650086485 191.44929150184768,206.0534812480726 190.06467818042753,207.97014093224072Z" id="way/608703176"></path>,<path stroke-width="1" stroke="#000000" fill="white" d="M185.81218892059584,200.07933535706033 186.52034993205353,203.1056374181291 188.8844098273103,202.54894717313906 188.17624881555784,199.52638156345432 185.81218892059584,200.07933535706033Z" id="way/608703177"></path>,<path stroke-width="1" stroke="#000000" fill="white" d="M193.06643530492792,218.0578334658158 196.6107635530072,220.25471095379916 197.80160147348602,218.33431120127761 194.25727322511202,216.13743440951149 193.06643530492792,218.0578334658158Z" id="way/608703180"></path>,<path stroke-width="1" stroke="#000000" fill="white" d="M208.32889054410794,227.9325798517037 210.50269822715092,229.35233282930136 212.0352854913385,226.99853202138664 209.86147780859025,225.5787795945434 208.32889054410794,227.9325798517037Z" id="way/608703181"></path>,<path stroke-width="1" stroke="#000000" fill="white" d="M210.19265758493742,225.3807615196334 212.50739283240853,226.96490630181026 213.41989881305338,225.63108625642153 211.1051635652875,224.0469418229428 210.19265758493742,225.3807615196334Z" id="way/608703182"></path>,<path stroke-width="1" stroke="#000000" fill="white" d="M213.83211193927096,223.21003549581613 215.4422093640119,224.34957315661504 216.76340528155728,222.4852149314129 215.1568310458386,221.34194143306246 213.83211193927096,223.21003549581613Z" id="way/608703183"></path>,<path stroke-width="1" stroke="#000000" fill="white" d="M213.19441470973257,222.64213483996826 215.04761218349523,220.03427593176102 209.89670969940255,216.372814027401 208.04351222593465,218.98067136101366 213.19441470973257,222.64213483996826Z" id="way/608703184"></path>,<path stroke-width="1" stroke="#000000" fill="white" d="M189.1204634979927,214.8708680494751 192.00243219278812,216.80621144416014 193.40466145990916,214.71768452524645 190.52269276511373,212.78234179641862 189.1204634979927,214.8708680494751Z" id="way/608703185"></path>,<path stroke-width="1" stroke="#000000" fill="white" d="M198.61898134758184,223.0904774586002 206.60252787838954,228.4294933561192 209.43517192569408,224.19265320355132 201.45162539459162,218.8536410353043 198.61898134758184,223.0904774586002Z" id="way/608703186"></path>,<path stroke-width="1" stroke="#000000" fill="white" d="M117.1593258569062,221.71929638738396 119.63965099284565,210.59293937752366 116.46878079085464,209.8868012231672 113.98845565491519,221.01315693756825 117.1593258569062,221.71929638738396Z" id="way/608703187"></path>,<path stroke-width="1" stroke="#000000" fill="white" d="M124.10353159931954,210.28657254910286 120.96437009941329,222.09665136484392 124.378340350426,223.0082813093775 127.52102503964927,211.19446453677844 124.10353159931954,210.28657254910286Z" id="way/608703188"></path>,<path stroke-width="1" stroke="#000000" fill="white" d="M108.27736610213225,239.34291975997135 109.71835044967735,236.46231129458002 107.49521811884871,235.35266092739292 106.05423377159838,238.2332688664947 108.27736610213225,239.34291975997135Z" id="way/608703189"></path>,<path stroke-width="1" stroke="#000000" fill="white" d="M111.67724359646634,237.54954467882592 109.10179235456738,242.6046220486693 111.89215813242558,244.02437846063407 114.46760937432454,238.96929990807618 111.67724359646634,237.54954467882592Z" id="way/608703190"></path>,<path stroke-width="1" stroke="#000000" fill="white" d="M110.63790280836675,234.9753051249067 114.41828472683365,228.3136714075882 111.16638117497224,226.46799291736107 107.38599925650534,233.12962460719007 110.63790280836675,234.9753051249067Z" id="way/608703191"></path>,<path stroke-width="1" stroke="#000000" fill="white" d="M150.94318626517216,293.65628256133976 153.8709564184362,294.39232032928754 154.30430867937693,292.666181136331 151.3730153370906,291.9338798090086 150.94318626517216,293.65628256133976Z" id="way/608703193"></path>,<path stroke-width="1" stroke="#000000" fill="white" d="M143.68893988084005,298.85711987161716 147.1381420229598,299.3988740143407 147.4235203411331,297.60174493976035 143.97431819901337,297.05999095723746 143.68893988084005,298.85711987161716Z" id="way/608703194"></path>,<path stroke-width="1" stroke="#000000" fill="white" d="M134.451138025384,300.9568844747112 134.9725700142397,305.399271413754 137.44937196086212,305.10784475186347 136.93146316102872,300.6691942633205 134.451138025384,300.9568844747112Z" id="way/608703195"></path>,<path stroke-width="1" stroke="#000000" fill="white" d="M102.18224893619424,102.74529947472932 102.81994616543786,105.43903862900973 104.56744796558466,105.02432974868478 103.92975073604629,102.33059077965946 102.18224893619424,102.74529947472932Z" id="way/608703199"></path>,<path stroke-width="1" stroke="#000000" fill="white" d="M102.9855360539062,94.90320020695283 104.42652040115654,98.77754717315955 107.13232964012204,97.76879700147454 105.6913452928717,93.89445067931298 102.9855360539062,94.90320020695283Z" id="way/608703200"></path>,<path stroke-width="1" stroke="#000000" fill="white" d="M110.8739564787544,103.31318890650608 117.60677087423079,99.62564466937398 115.37659216565235,95.54954721446157 108.6437777698812,99.23335286071226 110.8739564787544,103.31318890650608Z" id="way/608703201"></path>,<path stroke-width="1" stroke="#000000" fill="white" d="M179.81219786032258,95.54207499449925 182.17625775528458,97.78374144714698 184.30426397985897,95.54207499449925 181.94372727391922,93.29667326124427 179.81219786032258,95.54207499449925Z" id="way/608703202"></path>,<path stroke-width="1" stroke="#000000" fill="white" d="M179.76639640185397,98.47118599199781 176.00715361781548,101.72907641604574 178.29370335251886,104.36303727018962 182.04942294724032,101.10140931786108 179.76639640185397,98.47118599199781Z" id="way/608703203"></path>,<path stroke-width="1" stroke="#000000" fill="white" d="M163.77111782688132,106.61965144975035 168.47105210433236,103.81009220125843 166.7024111694624,100.85108971958057 162.0024768923061,103.6606475967132 163.77111782688132,106.61965144975035Z" id="way/608703204"></path>,<path stroke-width="1" stroke="#000000" fill="white" d="M170.1269509878367,104.77774610438503 174.4957054883511,101.06778429627047 172.8574225502529,99.1362139412188 168.48514486071625,102.84243845332166 170.1269509878367,104.77774610438503Z" id="way/608703205"></path>,<path stroke-width="1" stroke="#000000" fill="white" d="M173.07938346455143,110.40060291783104 176.9055668417817,107.42291663426148 174.7317591590335,104.62830147596443 170.90557578150845,107.60225027060353 173.07938346455143,110.40060291783104Z" id="way/608703206"></path>,<path stroke-width="1" stroke="#000000" fill="white" d="M166.06119075090174,116.09445127474366 169.0664710644244,117.40583049204577 172.3042818596072,109.98589369912447 169.29900154578976,108.67451608574534 166.06119075090174,116.09445127474366Z" id="way/608703207"></path>,<path stroke-width="1" stroke="#000000" fill="white" d="M160.32191568505633,118.88159946609929 166.01538929243313,120.82064835968258 167.03006775678728,117.83174858931325 161.33659414970523,115.89643677406322 160.32191568505633,118.88159946609929Z" id="way/608703208"></path>,<path stroke-width="1" stroke="#000000" fill="white" d="M154.46285218950595,109.54876779636079 153.4235114011116,115.97489534887576 157.0911512679181,116.56893887921383 158.1304920566072,110.14281069783372 154.46285218950595,109.54876779636079Z" id="way/608703209"></path>,<path stroke-width="1" stroke="#000000" fill="white" d="M158.03184276133067,109.66832359563034 163.20388437985176,106.7840405951747 161.82984062549846,104.31820388380044 156.6577990072721,107.20248571230023 158.03184276133067,109.66832359563034Z" id="way/608703210"></path>,<path stroke-width="1" stroke="#000000" fill="white" d="M205.58784941374063,166.13254927925456 205.11574207237584,172.53258367343847 207.82507450095312,172.7343361812331 207.95895568733673,170.91109154188766 208.8608921003252,170.97460620247554 209.19911825530644,166.39781618648192 205.58784941374063,166.13254927925456Z" id="way/608709703"></path>,<path stroke-width="1" stroke="#000000" fill="white" d="M131.56916933088334,255.74111775196272 133.0348160018791,256.4024267349623 133.6548972857166,255.0312381332813 132.18925061472083,254.36992929957637 131.56916933088334,255.74111775196272Z" id="way/608709704"></path>,<path stroke-width="1" stroke="#000000" fill="white" d="M135.0888352549224,255.4347486435926 136.81519792064077,252.07963429213365 134.39124381053153,250.83174145446833 132.6684043338354,254.18685511575256 135.0888352549224,255.4347486435926Z" id="way/608709705"></path>,<path stroke-width="1" stroke="#000000" fill="white" d="M92.65906876227014,261.3155437539928 90.9820307443374,265.5673546982486 92.68020789699331,266.23613718355307 94.35724591492604,261.98432577063284 92.65906876227014,261.3155437539928Z" id="way/608709706"></path>,<path stroke-width="1" stroke="#000000" fill="white" d="M91.78531786234412,288.6983045943247 91.2180844150198,291.48553210109355 92.70487022103352,291.7881668001596 92.90216881129184,290.81674683180444 93.9908342471771,291.0409206569494 94.36076910424308,289.2213766830686 91.78531786234412,288.6983045943247Z" id="way/608709707"></path>,<path stroke-width="1" stroke="#000000" fill="white" d="M103.33785496527128,291.43696110123886 103.17226507680294,295.95032950274674 107.67137757467863,296.1147237803414 107.83696746285221,291.6013552563618 103.33785496527128,291.43696110123886Z" id="way/608709708"></path>,<path stroke-width="1" stroke="#000000" fill="white" d="M114.72480217943536,287.34952606013167 114.0166411676829,290.1143355670459 116.2468198765561,290.6859787710421 116.95498088830854,287.92116900341483 114.72480217943536,287.34952606013167Z" id="way/608709709"></path>,<path stroke-width="1" stroke="#000000" fill="white" d="M190.27959271609203,24.380803968248824 191.65011328142305,26.93253774618074 193.3165817319942,26.039617605424933 191.94606116695792,23.487884202866706 190.27959271609203,24.380803968248824Z" id="way/608709710"></path>,<path stroke-width="1" stroke="#000000" fill="white" d="M188.62369383288245,21.54886641902232 190.08934050417298,23.271192396160476 191.38235090895066,22.17278922203092 189.9167042376601,20.44672749311566 188.62369383288245,21.54886641902232Z" id="way/608709711"></path>,<path stroke-width="1" stroke="#000000" fill="white" d="M183.0500086552106,15.855106799004481 184.82217277969238,17.69698514723501 186.0623353476621,16.501445385143874 184.2936944124974,14.659567400054591 183.0500086552106,15.855106799004481Z" id="way/608709712"></path>,<path stroke-width="1" stroke="#000000" fill="white" d="M179.09346728120855,11.618415116677026 180.40409363139236,13.751704827409641 182.55676217971217,12.425403780146944 181.74290549463862,11.099103024104664 181.06997637369844,11.510069424370286 180.57672989790524,10.7068169397811 179.09346728120855,11.618415116677026Z" id="way/608709713"></path>,<path stroke-width="1" stroke="#000000" fill="white" d="M177.7793177420025,9.074159892456748 178.5121410775004,11.248545348258444 179.99188050517478,10.747913576344262 179.25905716938212,8.573528300639401 177.7793177420025,9.074159892456748Z" id="way/608709714"></path>,<path stroke-width="1" stroke="#000000" fill="white" d="M176.8597653833131,6.429032245081408 177.49746261285148,8.719234505895601 178.96663247316428,8.31200435097853 178.3289352436259,6.018066188945175 176.8597653833131,6.429032245081408Z" id="way/608709715"></path>,<path stroke-width="1" stroke="#000000" fill="white" d="M40.51939307338655,102.08400724486212 41.24517003083989,100.28693663219089 37.841769347188766,98.91578332035235 37.11951557905246,100.7128535271425 40.51939307338655,102.08400724486212Z" id="way/608709725"></path>,<path stroke-width="1" stroke="#000000" fill="white" d="M39.03260726766759,94.05136726167724 40.51939307338655,94.80979746575059 41.209938139732856,93.45358982754426 39.71962914469687,92.69515979310387 39.03260726766759,94.05136726167724Z" id="way/608709726"></path>,<path stroke-width="1" stroke="#000000" fill="white" d="M40.7801090678144,95.3029639552625 42.834128320857666,96.29676927450971 43.73606473384617,94.42871429733833 41.6820454808029,93.43490928390203 40.7801090678144,95.3029639552625Z" id="way/608709727"></path>,<path stroke-width="1" stroke="#000000" fill="white" d="M55.570456965629596,78.19907686622844 55.30974097149651,79.99614093528302 56.77891083180932,80.20909866723498 57.03962682623717,78.41203453480753 55.570456965629596,78.19907686622844Z" id="way/608709728"></path>,<path stroke-width="1" stroke="#000000" fill="white" d="M51.268643058307,80.87038851339823 51.45889527022603,83.79949242640014 53.69259716841625,83.6537844178175 53.502344956202464,80.72468057496789 51.268643058307,80.87038851339823Z" id="way/608709729"></path>,<path stroke-width="1" stroke="#000000" fill="white" d="M59.421302666900075,86.01873791525914 59.326176560645806,88.59291425445181 61.433043650497005,88.67137247688177 61.524646567139484,86.09719610379197 59.421302666900075,86.01873791525914Z" id="way/608709730"></path>,<path stroke-width="1" stroke="#000000" fill="white" d="M55.47533085967008,87.1059443344988 55.50703956146008,88.66390026487788 57.867576267694574,88.6190669950653 57.83586756590458,87.05737497172728 55.47533085967008,87.1059443344988Z" id="way/608709731"></path>,<path stroke-width="1" stroke="#000000" fill="white" d="M55.02436265332321,81.19916541254935 55.07368730110886,83.49313200158616 56.84585142470635,83.45577097575864 56.79652677721546,81.16180439998591 55.02436265332321,81.19916541254935Z" id="way/608709732"></path>,<path stroke-width="1" stroke="#000000" fill="white" d="M246.03406043556367,214.89328515090884 247.96829125890198,213.5407868459538 246.4321808053974,211.34391179045676 244.49794998205908,212.69640960478793 246.03406043556367,214.89328515090884Z" id="way/608709733"></path>,<path stroke-width="1" stroke="#000000" fill="white" d="M244.85026889371892,219.69054676068353 247.42572013532313,222.7131224189464 249.1027581535506,221.28589862001078 246.53083010067394,218.25958748822188 244.85026889371892,219.69054676068353Z" id="way/608709734"></path>,<path stroke-width="1" stroke="#000000" fill="white" d="M236.4650788037605,211.20567308064219 237.45861813368623,213.09618111583129 239.4034185243861,212.07620338694954 238.41340238348263,210.18569566995117 236.4650788037605,211.20567308064219Z" id="way/608709735"></path>,<path stroke-width="1" stroke="#000000" fill="white" d="M238.26190525139816,213.8546262047166 240.22079839877668,216.05150216998268 241.5419943160273,214.8708680494751 239.58310116894356,212.67399251146003 238.26190525139816,213.8546262047166Z" id="way/608709736"></path>,<path stroke-width="1" stroke="#000000" fill="white" d="M223.94366469494778,215.0128430261555 225.01119099610986,213.701442706574 223.47508054260524,212.44982158348657 222.4075542411484,213.75748544917863 223.94366469494778,215.0128430261555Z" id="way/608709737"></path>,<path stroke-width="1" stroke="#000000" fill="white" d="M220.58958865878753,215.0576772303494 222.24196435297483,216.49984430152784 222.9959268231959,215.63678572809602 221.3435511290086,214.19461886177405 220.58958865878753,215.0576772303494Z" id="way/608709738"></path>,<path stroke-width="1" stroke="#000000" fill="white" d="M218.5813708642129,216.54841470110887 221.08635832360304,219.2160510900268 222.09751359952443,218.26332367358728 219.59604932856706,215.59568770366715 218.5813708642129,216.54841470110887Z" id="way/608709739"></path>,<path stroke-width="1" stroke="#000000" fill="white" d="M222.5484818058713,217.7028958510921 224.20438068908086,219.00308847821694 225.342370772457,217.5534484411923 223.6899950785645,216.25325612488928 222.5484818058713,217.7028958510921Z" id="way/608709740"></path>,<path stroke-width="1" stroke="#000000" fill="white" d="M227.0370247363854,216.4064396881733 229.75692673173478,216.4064396881733 229.75692673173478,214.4449431378562 227.0370247363854,214.4449431378562 227.0370247363854,216.4064396881733Z" id="way/608709741"></path></g></g><g transform="translate(210,516.78)" text-anchor="middle"><text id="img-title" fill="white" font-size="25px" font-family="Arial">Anosibe An'ala</text></g><g transform="translate(412,584)" text-anchor="end"><text fill="#5d5d5d" font-size="10px" font-family="Arial">hanshack.com | © OpenStreetMap contributors</text></g></svg>